<?xml version="1.0" encoding="UTF-8" standalone="no"?>
<svg
   xmlns:dc="http://purl.org/dc/elements/1.1/"
   xmlns:cc="http://creativecommons.org/ns#"
   xmlns:rdf="http://www.w3.org/1999/02/22-rdf-syntax-ns#"
   xmlns:svg="http://www.w3.org/2000/svg"
   xmlns="http://www.w3.org/2000/svg"
   viewBox="0 0 131 131"
   height="131"
   width="131"
   id="svg857"
   version="1.1">
  <metadata
     id="metadata863">
    <rdf:RDF>
      <cc:Work
         rdf:about="">
        <dc:format>image/svg+xml</dc:format>
        <dc:type
           rdf:resource="http://purl.org/dc/dcmitype/StillImage" />
        <dc:title></dc:title>
      </cc:Work>
    </rdf:RDF>
  </metadata>
  <defs
     id="defs861" />
  <path
     d="M 129.77929,0.4571847 C 127.82337,0.4176747 124.10473,2.097122 118.18001,5.6017099 107.98941,11.629654 96.254785,19.772343 93.952638,22.412237 93.074057,23.41972 88.281259,28.242752 83.302613,33.130974 72.093057,44.136939 65.464944,52.087105 65.464944,54.527434 c 0,1.023027 0.09807,1.861326 0.2184,1.861326 0.671199,0 10.867375,-7.002707 11.762297,-8.078116 2.973106,-3.572746 25.271889,-14.570031 33.890709,-16.714824 1.94677,-0.484455 3.74626,-1.254498 3.99903,-1.710935 0.25276,-0.456437 1.01543,-3.863573 1.69492,-7.572257 l 1.23551,-6.744133 3.37659,8.707021 c 1.85692,4.788764 3.27362,9.121385 3.14884,9.626942 -0.12478,0.505555 -2.08253,3.442746 -4.35081,6.529289 -2.26828,3.086547 -4.60357,6.628656 -5.18929,7.871084 -0.58573,1.242419 -1.70082,3.247011 -2.47804,4.45312 l -1.41335,2.191404 0.83069,-5.292962 c 0.45679,-2.911927 0.66914,-5.699464 0.4719,-6.193352 -0.47762,-1.195979 -12.745236,2.151857 -15.781604,4.306635 -1.317876,0.935239 -3.593953,2.112071 -5.058258,2.615231 -8.577764,2.947456 -34.429146,17.499829 -37.717356,21.232397 -0.927398,1.052729 -5.996443,5.408378 -11.264663,9.677723 -7.441314,6.030413 -9.620215,8.31188 -9.766297,10.224597 -0.143337,1.876768 0.04709,2.273656 0.801833,1.673826 5.692285,-4.523924 22.97063,-10.992213 45.167072,-16.910136 22.891743,-6.103313 30.942943,-7.831257 36.740803,-7.884756 2.92862,-0.02702 5.57839,-0.490527 5.88895,-1.029295 0.31056,-0.53877 1.71459,-9.379814 3.11997,-19.646462 1.40539,-10.266658 3.09727,-21.665339 3.75957,-25.332001 1.76095,-9.749037 2.9398,-17.7782013 2.9398,-20.0273207 0,-1.2374625 -0.53932,-1.8805867 -1.71287,-1.9042946 z M 112.06018,81.738339 c -7.90302,0.0635 -20.712629,1.741551 -32.831476,4.632807 -11.132923,2.656027 -28.146963,8.404342 -29.472044,9.95702 -0.585724,0.686329 -4.299481,2.827414 -8.253111,4.757814 -9.193764,4.48895 -28.071543,15.78751 -33.2417549,19.89645 -2.1934931,1.74324 -4.7169332,3.57083 -5.6073717,4.06055 -1.1182364,0.615 -1.6192662,1.68245 -1.6192662,3.45116 0,2.94733 0.1341646,3.00878 2.7018968,1.22266 2.7090289,-1.8844 18.574921,-7.57515 31.376791,-11.2539 17.868547,-5.13468 34.627586,-7.54392 58.199983,-8.36327 l 22.257883,-0.77343 0.69966,-3.46875 c 0.38473,-1.90817 1.12068,-6.7694 1.63565,-10.80272 0.51496,-4.033335 1.14634,-7.902941 1.4032,-8.5996 0.25687,-0.696669 0.46722,-2.046667 0.46722,-2.999996 0,-1.211809 -2.97544,-1.754885 -7.71726,-1.716795 z"
     style="fill:#fefefe;stroke-width:0.84259498"
     id="path879" />
  <path
     id="path869"
     d=""
     style="fill:#000000;stroke-width:1.33333325" />
</svg>
