<?xml version="1.0" encoding="UTF-8" standalone="no"?>
<svg
   xmlns:dc="http://purl.org/dc/elements/1.1/"
   xmlns:cc="http://creativecommons.org/ns#"
   xmlns:rdf="http://www.w3.org/1999/02/22-rdf-syntax-ns#"
   xmlns:svg="http://www.w3.org/2000/svg"
   xmlns="http://www.w3.org/2000/svg"
   viewBox="0 0 643 132"
   height="132"
   width="643"
   id="svg857"
   version="1.1">
  <metadata
     id="metadata863">
    <rdf:RDF>
      <cc:Work
         rdf:about="">
        <dc:format>image/svg+xml</dc:format>
        <dc:type
           rdf:resource="http://purl.org/dc/dcmitype/StillImage" />
        <dc:title></dc:title>
      </cc:Work>
    </rdf:RDF>
  </metadata>
  <defs
     id="defs861" />
  <path
     d="m 561.39037,-0.14242957 c -7.82543,0.05576 -15.54615,0.914201 -17.39649,2.53124997 -2.17705,1.902572 -3.54942,7.7314666 -7.4375,31.5800776 -3.49908,21.462591 -4.38131,29.7145 -3.31445,31 0.79964,0.9635 3.03017,1.734237 4.95703,1.710937 6.25676,-0.07573 8.10124,-2.796571 9.80078,-14.457031 2.10936,-14.47233 4.22739,-14.502677 11.86524,-0.167969 3.12588,5.86666 6.20446,10.666016 6.83984,10.666016 0.63537,0 0.82175,0.536869 0.41602,1.193359 -0.8777,1.42014 2.296,2.806641 6.42382,2.806641 3.6134,0 6.15821,-2.352853 6.15821,-5.695313 0,-2.56352 -5.56457,-13.14059 -9.10742,-17.3125 -1.09365,-1.28783 -1.74246,-2.487185 -1.44141,-2.666015 0.30107,-0.17884 2.94753,-1.525518 5.88086,-2.992188 12.68705,-6.343528 15.3558,-28.2313946 4.37891,-35.9199216 -2.26679,-1.58770997 -10.19802,-2.33310697 -18.02344,-2.27734297 z m -186.36524,0.197265 c -15.73536,0 -24.64224,7.39331597 -24.65234,20.46484357 -0.004,5.482023 0.61072,7.039507 4.03711,10.240234 2.22245,2.076072 7.17245,4.797996 11,6.048829 11.81444,3.860908 14.29297,5.549444 14.29297,9.740234 0,10.35199 -16.9654,12.539894 -25.90039,3.339844 -2.40367,-2.47497 -5.6171,-4.5 -7.14063,-4.5 -3.47221,0 -6.95898,3.38202 -6.95898,6.75 0,2.85127 5.9764,8.710449 12.43945,12.193359 4.98359,2.68565 18.74443,3.140101 26.32422,0.869141 2.79091,-0.83617 7.02222,-3.53067 9.40234,-5.986328 3.67906,-3.795832 4.41279,-5.657642 4.90235,-12.425782 0.53254,-7.36239 0.28899,-8.248124 -3.26172,-11.798828 -2.11168,-2.111677 -7.33484,-5.148244 -11.60547,-6.746094 -9.89436,-3.701954 -14.10736,-6.783639 -14.16016,-10.359375 -0.10376,-7.025305 10.11626,-9.0296476 20.39649,-4 8.28956,4.055702 10.57975,4.29524 13.46679,1.408203 2.8522,-2.852192 2.6648,-3.88013 -1.45898,-8.0039056 -5.16688,-5.166887 -11.20219,-7.23437497 -21.12305,-7.23437497 z m 39.48633,0 c -2.59455,0 -4.53071,0.898837 -5.38867,2.50195297 -1.88674,3.525404 -11.1689,59.8257286 -10.25586,62.2050776 1.04226,2.716071 7.9782,2.468724 10.45898,-0.373046 1.1744,-1.3453 3.07844,-9.096085 4.49805,-18.302735 2.17299,-14.092518 2.60849,-15.462354 3.69727,-11.666015 0.67853,2.365909 1.78259,4.300781 2.45312,4.300781 0.67052,0 0.84775,0.600654 0.39453,1.333984 -0.45323,0.73333 -0.28423,1.333985 0.375,1.333985 0.65924,0 2.00157,2.549345 2.98438,5.666015 2.41165,7.64783 3.63719,9 8.15625,9 2.79818,0 4.49107,-1.033911 6.16992,-3.769531 2.49274,-4.0618 15.40721,-20.263972 15.80469,-19.828125 0.13247,0.145243 -0.9209,7.074118 -2.3418,15.398437 -2.78013,16.28758 -2.31335,18.865235 3.42578,18.865235 5.89625,0 7.00492,-2.560406 10.67188,-24.666016 1.94636,-11.733334 4.06879,-22.533334 4.71679,-24 1.83659,-4.156972 2.9315,-12.5130496 2.01758,-15.3925776 -0.62494,-1.96902097 -2.02975,-2.60530897 -5.73633,-2.59960897 -5.22183,0.0081 -5.71253,0.548759 -27.49023,30.28710857 l -5.24805,7.164063 -5.26367,-15.0625 c -2.89497,-8.284619 -5.78713,-15.2637996 -6.42773,-15.5097656 -0.6406,-0.245968 -0.8223,-1.00141 -0.4043,-1.677734 1.30197,-2.106652 -3.02641,-5.20898497 -7.26758,-5.20898497 z m 93.26563,0 c -3.33441,0 -4.83435,1.50936597 -11.59571,11.66601557 -4.27163,6.416667 -8.70864,13.467969 -9.85937,15.667969 -5.68784,10.874084 -15.12013,26 -16.21289,26 -0.67764,0 -0.89302,0.54805 -0.47852,1.21875 0.41452,0.6707 0.23081,1.420045 -0.41015,1.666015 -2.48437,0.95336 -2.9396,6.169776 -0.73047,8.378907 1.35678,1.356768 3.82057,2.057153 6.36914,1.808593 3.58114,-0.34927 4.87074,-1.65111 9.32812,-9.40625 l 5.17383,-9 h 10.4082 10.40821 l 1.64843,7.666016 c 0.9071,4.21666 2.22383,8.417314 2.92579,9.333984 1.67289,2.18453 7.8037,2.132566 10.8457,-0.0918 2.30755,-1.68732 2.2802,-2.346844 -0.67774,-16.333984 -1.69525,-8.0163 -3.53027,-14.763427 -4.07617,-14.994141 -0.5459,-0.230712 -0.6374,-1.340163 -0.20508,-2.466797 0.43233,-1.126634 0.21464,-2.438072 -0.48242,-2.914062 -0.69705,-0.475988 -2.34507,-5.965886 -3.66211,-12.199219 C 513.4681,1.7344064 512.55283,0.05483243 507.77709,0.05483243 Z m 110.55859,0 c -13.06156,0 -24.69745,0.363469 -25.85742,0.808594 -1.22484,0.47001597 -2.10938,2.36806197 -2.10938,4.52539097 0,4.479325 1.8497,5.3320306 11.54883,5.3320306 7.28817,0 7.32602,0.02234 6.58594,3.667969 -2.23823,11.025551 -7.46875,43.930211 -7.46875,46.988281 0,1.96214 0.39978,3.966198 0.88867,4.455078 1.69843,1.69844 8.12965,0.877395 9.9082,-1.265625 1.46245,-1.76216 3.54909,-11.085214 6.98438,-31.201172 0.19005,-1.112894 0.70644,-2.613544 1.14844,-3.333984 0.87154,-1.420584 3.09296,-16.676047 2.66601,-18.310547 -0.14365,-0.55 3.59432,-1 8.3086,-1 10.60705,0 14.23923,-2.5991456 11.95312,-8.5566406 -0.69608,-1.81394397 -4.13129,-2.10937497 -24.55664,-2.10937497 z M 323.41381,1.4571794 c -4.89768,-0.03951 -14.20926,1.639939 -29.04493,5.144531 -25.51756,6.0279516 -54.90139,14.1706496 -60.66601,16.8105466 -2.2,1.007485 -14.2013,5.830522 -26.66797,10.71875 -28.06904,11.005978 -44.66602,18.956153 -44.66602,21.396485 0,1.023028 0.24558,1.861328 0.54688,1.861328 1.6807,0 27.21221,-7.002715 29.45312,-8.078125 7.44474,-3.57275 63.28151,-14.570048 84.86328,-16.714844 4.87477,-0.484455 9.38076,-1.2545 10.01368,-1.710938 0.63293,-0.456437 2.54267,-3.863576 4.24414,-7.572265 l 3.09375,-6.744141 8.45508,8.707031 c 4.64978,4.788769 8.19722,9.121396 7.88476,9.626954 -0.31245,0.505555 -5.2147,3.442749 -10.89453,6.529296 -5.67984,3.08655 -11.52747,6.628664 -12.99414,7.871094 -1.46667,1.24242 -4.25891,3.247015 -6.20508,4.453125 l -3.53906,2.191406 2.08008,-5.292968 c 1.14382,-2.91193 1.67553,-5.69947 1.18164,-6.19336 -1.19598,-1.19598 -31.91443,2.151861 -39.51758,4.306641 -3.3,0.93524 -8.99936,2.112074 -12.66602,2.615234 -21.47896,2.94746 -86.21154,17.499852 -94.44531,21.232424 -2.32223,1.05273 -15.01526,5.40838 -28.20703,9.67773 -18.633246,6.03042 -24.08928,8.31189 -24.455075,10.22461 -0.35892,1.87677 0.117917,2.27366 2.007813,1.67383 14.253642,-4.52393 57.519092,-10.99223 113.099602,-16.91016 57.32155,-6.10332 77.48199,-7.831262 92,-7.884762 7.33334,-0.02702 13.96846,-0.490527 14.7461,-1.029297 0.77765,-0.53877 4.29338,-9.379824 7.8125,-19.646484 3.51912,-10.26667 7.75564,-21.665364 9.41406,-25.332031 4.40945,-9.749048 7.36133,-17.7782216 7.36133,-20.0273436 0,-1.237464 -1.35046,-1.880589 -4.28906,-1.904297 z m 231.29492,9.2636716 h 7.06836 c 7.48319,0 11.25781,2.202129 11.25781,6.564453 0,4.98472 -3.07804,10.991291 -6.25,12.197266 -1.79108,0.680968 -5.98449,1.238281 -9.31836,1.238281 h -6.06055 l 0.7793,-4.332031 c 0.42863,-2.383333 1.17034,-6.883333 1.65039,-10 z m -50.54688,10 1.74414,6.667969 c 0.95926,3.666667 1.75543,7.415365 1.76953,8.332031 0.0173,1.12035 -2.21865,1.667969 -6.82226,1.667969 h -6.84766 l 3.44922,-3.451172 c 1.89771,-1.897708 4.18454,-5.64836 5.08008,-8.333985 z m -71.69531,57.748043 c -2.17109,-0.008 -5.02919,1.86878 -6.63867,4.85743 -1.36396,2.53271 -3.47159,5.68271 -4.6836,7 -3.50543,3.80989 -12.10937,20.228216 -12.10937,23.107416 0,1.9111 0.90905,2.62109 3.35547,2.62109 2.5214,0 3.90758,-1.15874 5.58008,-4.66601 2.07745,-4.35647 2.64162,-4.66797 8.49609,-4.66797 6.11158,0 6.2933,0.12017 7.14648,4.66797 0.71121,3.79107 1.47542,4.66601 4.07032,4.66601 1.75682,0 3.52672,-0.53894 3.93359,-1.19726 0.69169,-1.11917 -5.46564,-32.950056 -6.79688,-35.136716 -0.52125,-0.85619 -1.36665,-1.24817 -2.35351,-1.25196 z m -89.4668,0.25196 c -5.04035,0 -6.88191,0.71398 -10.0664,3.89843 -6.85715,6.85715 -3.85014,14.70623 7.19726,18.787106 6.45922,2.38601 7.19359,5.34623 1.79688,7.24414 -2.93425,1.03193 -4.66652,0.81745 -7.77539,-0.96679 -5.20417,-2.98672 -9.12201,-2.9712 -9.09571,0.0371 0.0261,2.98618 1.30979,4.84811 4.64649,6.74023 1.46667,0.83169 5.17717,1.53044 8.24609,1.55274 10.37492,0.0754 16.41992,-4.00844 16.41992,-11.0918 0,-5.876506 -2.82202,-9.384446 -9.25586,-11.507806 -7.56715,-2.49739 -9.29443,-4.86239 -4.98437,-6.82618 2.5086,-1.14296 4.46025,-1.15142 7.66797,-0.0332 6.44632,2.2472 9.23828,1.90458 9.23828,-1.13281 0,-3.60717 -6.47925,-6.70117 -14.03516,-6.70117 z m 46.03516,0 c -13.77778,0 -14.66602,0.16292 -14.66602,2.66797 0,2.15873 0.88824,2.66601 4.66602,2.66601 2.56666,0 4.66701,0.15066 4.66601,0.33399 -0.001,0.18333 -0.90004,5.43267 -1.99804,11.66601 -1.098,6.233326 -1.999,13.282686 -2,15.666016 -0.002,3.70183 0.47139,4.33398 3.24218,4.33398 1.93255,0 3.52873,-0.94372 3.94727,-2.33398 0.62697,-2.08264 4.81055,-27.289236 4.81055,-28.984376 0,-0.37456 2.7,-0.68164 6,-0.68164 5.11111,0 6,-0.3944 6,-2.66601 0,-2.50505 -0.8902,-2.66797 -14.66797,-2.66797 z m 84,0 c -13.77777,0 -14.66602,0.16292 -14.66602,2.66797 0,2.22316 0.88802,2.66601 5.34375,2.66601 4.67684,0 5.19013,0.2922 4.09766,2.33399 -1.41448,2.64365 -4.10742,19.421066 -4.10742,25.589836 0,3.40339 0.52328,4.07617 3.16992,4.07617 4.16753,0 5.669,-2.0691 6.77539,-9.33398 0.50256,-3.3 1.53148,-9.748696 2.28711,-14.332026 l 1.37305,-8.33399 h 5.19726 c 4.30758,0 5.19727,-0.45549 5.19727,-2.66601 0,-2.50505 -0.89019,-2.66797 -14.66797,-2.66797 z m 38.07812,0 c -1.79006,0 -3.57483,0.52009 -3.96679,1.15429 -1.19668,1.93626 -6.02727,33.904576 -5.30078,35.080076 1.38022,2.23321 5.94751,1.01865 7.14648,-1.90039 1.34075,-3.26416 5.37695,-26.908556 5.37695,-31.498046 0,-2.11667 -0.82576,-2.83593 -3.25586,-2.83593 z m 46.00391,0.0449 c -1.20904,-0.007 -2.68585,0.0662 -4.56055,0.18554 -14.22097,0.90552 -20.9,8.19736 -20.8125,22.726566 0.0437,7.25722 1.34821,10.06627 5.95899,12.84179 1.56556,0.94242 6.08798,1.42774 10.95508,1.17579 6.59842,-0.34156 9.00672,-1.0962 11.79492,-3.70118 5.41812,-5.06206 7.25,-9.76038 7.25,-18.599606 0,-6.94722 -0.4982,-8.62515 -3.42383,-11.55078 -2.31873,-2.31872 -3.53499,-3.05599 -7.16211,-3.07812 z m 60.64062,0.0781 c -0.59217,-0.0286 -1.36427,0.0298 -2.36718,0.12695 -4.22071,0.40907 -4.34744,0.61626 -6.14063,9.97851 l -1.83203,9.5625 -4.85742,-9.5625 c -3.69698,-7.27732 -5.61151,-9.66821 -8.01172,-10.00781 -1.73457,-0.24542 -3.71809,0.11654 -4.40625,0.80469 -1.61155,1.61156 -6.73993,33.413966 -5.66797,35.148426 0.44644,0.72236 2.1067,1.12761 3.6875,0.90235 2.15695,-0.30738 3.15519,-1.73977 4.00391,-5.74219 0.62202,-2.93334 1.67267,-6.37505 2.33398,-7.64844 0.66131,-1.27338 1.23283,-3.372726 1.26953,-4.666006 0.0367,-1.29328 2.44406,2.297136 5.34961,7.980466 3.86367,7.55746 5.98057,10.33398 7.88477,10.33398 3.66831,0 4.83195,-2.93488 6.73828,-16.999996 0.91939,-6.78334 2.18722,-12.33398 2.81641,-12.33398 0.62919,0 1.14453,-1.83753 1.14453,-4.08399 0,-2.85076 -0.16875,-3.70725 -1.94532,-3.79296 z m -338.71289,3.89453 c -19.7894,0.0635 -51.865,1.74155 -82.21093,4.63281 -27.87715,2.65603 -70.48079,8.40435 -73.79883,9.95703 -1.46667,0.68633 -10.76602,2.827406 -20.66602,4.757806 -23.021446,4.48896 -70.29192,15.78754 -83.238274,19.89649 -5.492568,1.74324 -11.8113326,3.57082 -14.0410157,4.06054 -2.8000948,0.615 -4.0546874,1.68246 -4.0546874,3.45117 0,2.94733 0.3359519,3.00878 6.765625,1.22266 6.7834841,-1.8844 46.5121181,-7.57516 78.5683591,-11.25391 44.743343,-5.13469 86.708433,-7.54393 145.734373,-8.36328 l 55.73437,-0.77343 1.75196,-3.46875 c 0.96337,-1.90817 2.80621,-6.76941 4.0957,-10.802736 1.28949,-4.03334 2.87049,-7.90295 3.51367,-8.59961 0.64319,-0.69667 1.16992,-2.04667 1.16992,-3 0,-1.21181 -7.45058,-1.75488 -19.32422,-1.71679 z m 273.57227,2.68164 c 1.82107,-0.006 3.5595,0.63176 4.99023,2.0625 4.47061,4.47061 0.95586,18.216146 -5.26171,20.580066 -4.75212,1.80676 -6.2096,1.67983 -9.83204,-0.85742 -2.70912,-1.89755 -3.02816,-2.97939 -2.42968,-8.289056 0.86289,-7.6556 7.07,-13.478 12.5332,-13.49609 z m -123.03125,6.63476 c 0.2646,0 0.74352,1.8 1.06641,4 0.51035,3.47726 0.1779,3.999996 -2.54883,3.999996 -3.05595,0 -3.08361,-0.102916 -1.06836,-3.999996 1.13767,-2.2 2.28618,-4 2.55078,-4 z"
     style="fill:#fefefe;stroke-width:1.33333325"
     id="path879" />
  <path
     id="path869"
     d=""
     style="fill:#000000;stroke-width:1.33333325" />
</svg>
